<?xml version="1.0" encoding="UTF-8"?><svg id="a" xmlns="http://www.w3.org/2000/svg" viewBox="0 0 139.25 144"><g id="b"><polygon points="50.74 134.78 42.19 139.29 42.35 92.55 50.74 88.3 50.74 134.78" fill="#f6eb16"/><polygon points="42.42 91.79 42.42 89.04 42.33 85.34 50.52 87.67 42.42 91.79" fill="#f6851f"/><polygon points="34.43 134.86 41.79 139.29 41.94 92.41 34.26 88.38 34.43 134.86" fill="#f6851f"/><polygon points="41.99 91.73 41.99 87.84 41.95 85.34 34.43 87.82 41.99 91.73" fill="#f6eb16"/><polygon points="113.25 114.26 104.7 118.77 104.86 72.02 113.25 67.78 113.25 114.26" fill="#f6eb16"/><polygon points="104.93 71.27 104.93 68.52 104.84 64.82 113.03 67.15 104.93 71.27" fill="#f6851f"/><polygon points="96.94 114.34 104.3 118.77 104.45 71.89 96.77 67.85 96.94 114.34" fill="#f6851f"/><polygon points="104.5 71.21 104.5 67.32 104.47 64.82 96.94 67.3 104.5 71.21" fill="#f6eb16"/><polygon points="137.05 93.49 71.13 127.56 71.28 63.2 137.05 31.73 137.05 93.49" fill="#f6eb16"/><polygon points="71.13 61.39 71.13 6.25 134.69 30.75 71.13 61.39" fill="#f6851f"/><polygon points="2.05 93.43 67.81 127.56 67.86 63.42 1.78 31.84 2.05 93.43" fill="#f6851f"/><polygon points="67.85 61.39 67.18 6.25 3.2 30.49 67.85 61.39" fill="#f6eb16"/><polygon points="35.33 97.79 26.78 102.3 26.94 55.55 35.33 51.3 35.33 97.79" fill="#f6eb16"/><polygon points="27.01 54.8 27.01 52.05 26.92 48.35 35.11 50.68 27.01 54.8" fill="#f6851f"/><polygon points="19.02 97.87 26.38 102.3 26.53 55.42 18.85 51.39 19.02 97.87" fill="#f6851f"/><polygon points="26.58 54.73 26.58 50.85 26.54 48.35 19.02 50.83 26.58 54.73" fill="#f6eb16"/><polygon points="96.77 71.21 79.93 79.7 79.93 68.04 96.94 59.85 96.77 71.21" fill="#010101"/><polygon points="129.19 83.81 88.44 104.23 88.34 97.95 129.02 78.09 129.19 83.81" fill="#010101"/><polygon points="131.54 55.38 114.7 63.87 114.7 52.22 131.71 44.03 131.54 55.38" fill="#010101"/><polygon points="127.45 83.08 129.02 83.72 88.44 103.7 88.44 102.25 127.45 83.08" fill="#f6851f"/><polygon points="127.58 79.28 129.22 78.52 129.03 83.45 127.58 82.92 127.58 79.28" fill="#f6851f"/><polygon points="129.48 54.72 131.05 55.36 114.7 63.33 114.7 61.88 129.48 54.72" fill="#f6851f"/><polygon points="129.6 45.13 131.25 44.36 131.06 55.08 129.6 54.56 129.6 45.13" fill="#f6851f"/><polygon points="94.94 70.45 96.51 71.08 80.16 79.06 80.16 77.6 94.94 70.45" fill="#f6851f"/><polygon points="95.06 60.85 96.71 60.09 96.52 70.81 95.06 70.29 95.06 60.85" fill="#f6851f"/></g></svg>