<?xml version="1.0" encoding="UTF-8"?><svg id="a" xmlns="http://www.w3.org/2000/svg" xmlns:xlink="http://www.w3.org/1999/xlink" viewBox="0 0 224 89"><defs><clipPath id="c"><rect x="-8.39" y="-23.33" width="234.76" height="136.83" fill="none"/></clipPath></defs><g id="b"><g clip-path="url(#c)"><path d="M139.54,1.86l-2.88-.05v67.05c0,2.81,2.99,3.34,2.99,3.34l-.11-70.33Z" fill="#f6851f"/><path d="M127.48,72.15h-19.23c-1.85,0-3.36-1.5-3.36-3.36v-19.23c0-1.85,1.51-3.36,3.36-3.36h19.23c1.85,0,3.36,1.51,3.36,3.36v19.23c0,1.85-1.51,3.36-3.36,3.36M107.86,69.18h20.01v-20.01h-20.01v20.01Z" fill="#f6851f"/><path d="M107.45,14.73h25.16l-.03-12.69,3.24-.05v66.96c0,2.71-2.99,3.22-2.99,3.22l-.09-54.63h-25.29v-2.81Z" fill="#f6851f"/><path d="M99.81,46.21h-19.23c-.15,0-.31.01-.45.04v2.86h7.59v.07h12.48v20.01h-20.01s-.07,0-.07,0v2.94c.15.02.3.03.45.03h19.23c1.85,0,3.36-1.5,3.36-3.36v-19.23c0-1.85-1.51-3.36-3.36-3.36" fill="#f6851f"/><polygon points="221 70.17 200.71 46 198.68 48.03 218.74 71.95 221 70.17" fill="#f6851f"/><polygon points="198.82 70.3 218.67 46.19 220.57 48.22 200.93 72.08 198.82 70.3" fill="#f6851f"/><path d="M192.46,72.22h-19.23c-1.85,0-3.36-1.5-3.36-3.36v-19.23c0-1.85,1.51-3.36,3.36-3.36h19.23c1.85,0,3.36,1.51,3.36,3.36v19.23c0,1.85-1.51,3.36-3.36,3.36M172.84,69.26h20.01v-20.01h-20.01v20.01Z" fill="#f6851f"/><g id="d"><path d="M66.17,81h.64v1.02c.25-.39.54-.68.87-.87.33-.19.69-.29,1.09-.29.7,0,1.3.28,1.8.85.5.57.75,1.25.75,2.04s-.25,1.5-.74,2.07c-.49.57-1.09.85-1.79.85-.39,0-.75-.09-1.08-.27s-.63-.46-.89-.82v2.97h-.64v-7.55ZM68.72,81.54c-.55,0-1.01.21-1.39.64s-.56.96-.56,1.6c0,.42.08.8.25,1.13.17.33.41.6.72.8.31.2.64.3.99.3s.66-.1.96-.3c.3-.2.54-.47.72-.83.18-.35.27-.73.27-1.12s-.09-.76-.27-1.12-.41-.62-.71-.82c-.3-.19-.62-.29-.98-.29Z" fill="#f6851f"/><path d="M82.48,81h.65v.81c.19-.32.4-.56.61-.71.21-.16.44-.24.67-.24.18,0,.36.06.56.19l-.33.6c-.13-.06-.25-.1-.34-.1-.21,0-.42.1-.61.29-.2.19-.35.5-.45.91-.08.32-.12.95-.12,1.91v1.87h-.65v-5.53Z" fill="#f6851f"/><path d="M98.08,80.86c.76,0,1.39.31,1.89.92.45.56.68,1.23.68,2s-.24,1.45-.72,2.02c-.48.58-1.1.87-1.85.87s-1.38-.29-1.86-.87c-.48-.58-.72-1.25-.72-2.02s.23-1.43.68-1.99c.5-.62,1.13-.93,1.9-.93ZM98.08,81.55c-.53,0-.98.22-1.36.66-.38.44-.57.96-.57,1.58,0,.4.09.77.26,1.12.17.35.41.61.7.8.29.19.62.28.97.28s.68-.09.97-.28c.29-.19.53-.45.7-.8.17-.35.26-.72.26-1.12,0-.62-.19-1.15-.57-1.58-.38-.44-.83-.66-1.36-.66Z" fill="#f6851f"/><path d="M116.99,78.87v7.66h-.63v-.95c-.27.36-.57.64-.9.82-.33.18-.69.27-1.09.27-.7,0-1.3-.28-1.79-.85-.5-.57-.74-1.26-.74-2.07s.25-1.48.75-2.04c.5-.57,1.1-.85,1.8-.85.41,0,.77.1,1.1.29.33.19.62.48.87.87v-3.15h.63ZM114.45,81.54c-.35,0-.68.1-.98.29-.3.19-.54.47-.71.82-.18.35-.26.72-.26,1.12s.09.76.27,1.12c.18.36.42.63.72.83.3.2.62.3.97.3s.68-.1.99-.3c.31-.2.55-.46.72-.8.17-.33.25-.71.25-1.13,0-.64-.19-1.17-.56-1.6-.38-.43-.84-.64-1.39-.64Z" fill="#f6851f"/><path d="M128.56,81h.64v2.58c0,.63.03,1.06.09,1.3.09.34.26.61.52.8.26.2.56.29.92.29s.66-.1.9-.29c.25-.19.42-.44.51-.75.06-.21.1-.67.1-1.36v-2.58h.65v2.71c0,.76-.08,1.34-.24,1.72-.16.39-.4.69-.72.91-.32.22-.72.33-1.2.33s-.88-.11-1.21-.33c-.32-.22-.56-.52-.72-.91-.16-.39-.24-.98-.24-1.77v-2.66Z" fill="#f6851f"/><path d="M149.32,82.15l-.5.35c-.44-.65-1.03-.97-1.78-.97-.6,0-1.1.22-1.5.65-.4.43-.6.96-.6,1.58,0,.4.09.78.27,1.14.18.36.43.63.75.83.32.2.68.3,1.07.3.73,0,1.32-.32,1.78-.97l.5.37c-.24.4-.55.71-.95.93-.4.22-.85.33-1.36.33-.78,0-1.43-.28-1.94-.83-.51-.56-.77-1.23-.77-2.03,0-.54.12-1.03.36-1.49.24-.46.57-.82.99-1.07.42-.26.89-.39,1.41-.39.33,0,.64.06.95.17.3.11.56.26.77.44.21.18.39.41.54.69Z" fill="#f6851f"/><path d="M161.32,78.95h.64v2.05h1.01v.61h-1.01v4.91h-.64v-4.91h-.87v-.61h.87v-2.05Z" fill="#f6851f"/><path d="M174.36,78.72c.14,0,.27.06.37.17.1.12.15.25.15.42s-.05.3-.15.41c-.1.12-.23.17-.37.17s-.26-.06-.37-.17c-.1-.12-.15-.25-.15-.41s.05-.3.15-.42c.1-.12.22-.17.37-.17ZM174.04,81h.63v5.53h-.63v-5.53Z" fill="#f6851f"/><path d="M188.56,80.86c.76,0,1.39.31,1.89.92.45.56.68,1.23.68,2s-.24,1.45-.72,2.02c-.48.58-1.1.87-1.85.87s-1.38-.29-1.86-.87c-.48-.58-.72-1.25-.72-2.02s.23-1.43.68-1.99c.5-.62,1.13-.93,1.9-.93ZM188.55,81.55c-.53,0-.98.22-1.36.66-.38.44-.57.96-.57,1.58,0,.4.09.77.26,1.12.17.35.41.61.7.8.29.19.62.28.97.28s.67-.09.97-.28c.29-.19.53-.45.7-.8.17-.35.26-.72.26-1.12,0-.62-.19-1.15-.57-1.58-.38-.44-.83-.66-1.36-.66Z" fill="#f6851f"/><path d="M202.53,81h.64v.99c.25-.38.54-.66.84-.85.31-.19.64-.28,1.01-.28s.7.11.98.32c.29.21.5.49.63.85.14.36.2.91.2,1.66v2.84h-.63v-2.64c0-.64-.02-1.06-.07-1.27-.07-.37-.21-.64-.42-.83-.21-.18-.48-.28-.82-.28-.38,0-.73.14-1.03.43-.3.28-.5.64-.6,1.06-.06.27-.09.78-.09,1.5v2.03h-.64v-5.53Z" fill="#f6851f"/><path d="M220.91,81.6l-.41.47c-.34-.37-.67-.55-1-.55-.21,0-.38.08-.53.23-.15.15-.22.33-.22.53,0,.18.06.35.18.51.12.17.38.36.76.58.47.27.79.54.96.79.17.26.25.55.25.87,0,.45-.14.84-.43,1.15-.29.31-.64.47-1.07.47-.29,0-.56-.07-.82-.21-.26-.14-.47-.33-.64-.57l.4-.51c.33.41.67.62,1.03.62.25,0,.47-.09.65-.27.18-.18.27-.4.27-.65,0-.2-.06-.38-.18-.54-.12-.16-.38-.35-.8-.59-.45-.26-.75-.51-.91-.76-.16-.25-.24-.54-.24-.86,0-.42.13-.77.38-1.05.26-.28.58-.42.97-.42.45,0,.91.25,1.37.75Z" fill="#f6851f"/></g><rect x="66.64" y="74.35" width="154.78" height=".74" fill="#f6eb16"/><path d="M164.09,49.18v20.01h-20.01s-3.21,0-3.21,0v2.97c.15.02,22.83,0,22.83,0,1.85,0,3.36-1.5,3.36-3.36v-19.23c0-1.85-1.5-3.36-3.36-3.36h-17.2c-.15,0-.31.01-.46.03v2.86" fill="#f6851f"/><polygon points="26.15 81.57 21.94 83.79 22.02 60.76 26.15 58.67 26.15 81.57" fill="#f6eb16"/><polygon points="22.05 60.39 22.05 59.04 22.01 57.21 26.04 58.36 22.05 60.39" fill="#f6851f"/><polygon points="18.12 81.61 21.74 83.79 21.81 60.7 18.03 58.71 18.12 81.61" fill="#f6851f"/><polygon points="21.84 60.36 21.84 58.45 21.82 57.21 18.12 58.43 21.84 60.36" fill="#f6eb16"/><polygon points="56.95 71.46 52.74 73.68 52.81 50.65 56.95 48.56 56.95 71.46" fill="#f6eb16"/><polygon points="52.85 50.28 52.85 48.93 52.8 47.1 56.84 48.25 52.85 50.28" fill="#f6851f"/><polygon points="48.91 71.5 52.54 73.68 52.61 50.59 48.83 48.6 48.91 71.5" fill="#f6851f"/><polygon points="52.64 50.25 52.64 48.34 52.62 47.1 48.91 48.32 52.64 50.25" fill="#f6eb16"/><polygon points="68.67 61.23 36.2 78.01 36.27 46.31 68.67 30.8 68.67 61.23" fill="#f6eb16"/><polygon points="36.2 45.41 36.2 18.25 67.51 30.32 36.2 45.41" fill="#f6851f"/><polygon points="2.17 61.2 34.56 78.01 34.59 46.42 2.03 30.85 2.17 61.2" fill="#f6851f"/><polygon points="34.58 45.41 34.25 18.25 2.73 30.19 34.58 45.41" fill="#f6eb16"/><polygon points="18.56 63.35 14.35 65.57 14.43 42.54 18.56 40.44 18.56 63.35" fill="#f6eb16"/><polygon points="14.46 42.17 14.46 40.81 14.42 38.99 18.45 40.14 14.46 42.17" fill="#f6851f"/><polygon points="10.53 63.38 14.15 65.57 14.22 42.47 10.44 40.49 10.53 63.38" fill="#f6851f"/><polygon points="14.25 42.13 14.25 40.22 14.23 38.99 10.53 40.21 14.25 42.13" fill="#f6eb16"/><polygon points="48.83 50.25 40.53 54.43 40.53 48.69 48.91 44.65 48.83 50.25" fill="#010101"/><polygon points="64.8 56.46 44.72 66.52 44.67 63.42 64.72 53.64 64.8 56.46" fill="#010101"/><polygon points="65.96 42.45 57.66 46.64 57.66 40.9 66.04 36.86 65.96 42.45" fill="#010101"/><polygon points="63.94 56.1 64.72 56.41 44.72 66.26 44.72 65.54 63.94 56.1" fill="#f6851f"/><polygon points="64 54.23 64.82 53.85 64.72 56.28 64 56.02 64 54.23" fill="#f6851f"/><polygon points="64.94 42.13 65.72 42.44 57.66 46.37 57.66 45.65 64.94 42.13" fill="#f6851f"/><polygon points="65 37.4 65.81 37.03 65.72 42.31 65 42.05 65 37.4" fill="#f6851f"/><polygon points="47.93 49.88 48.7 50.19 40.65 54.12 40.65 53.4 47.93 49.88" fill="#f6851f"/><polygon points="47.99 45.15 48.8 44.77 48.7 50.05 47.99 49.8 47.99 45.15" fill="#f6851f"/><polygon points="79.02 1.86 76.14 1.81 76.14 68.57 79.12 71.91 79.02 1.86" fill="#f6851f"/></g></g></svg>